<?xml version="1.0" standalone="no"?>
<!DOCTYPE svg PUBLIC "-//W3C//DTD SVG 20010904//EN"
 "http://www.w3.org/TR/2001/REC-SVG-20010904/DTD/svg10.dtd">
<svg version="1.0" xmlns="http://www.w3.org/2000/svg"
 width="800.000000pt" height="800.000000pt" viewBox="0 0 800.000000 800.000000"
 preserveAspectRatio="xMidYMid meet">
<metadata>
Created by potrace 1.14, written by Peter Selinger 2001-2017
</metadata>
<g transform="translate(0.000000,800.000000) scale(0.100000,-0.100000)"
fill="#000000" stroke="none">
<path d="M3458 7364 c-2 -2 -31 -6 -64 -9 -91 -8 -183 -21 -216 -31 -10 -3
-30 -7 -45 -10 -138 -24 -408 -123 -578 -211 -126 -66 -393 -247 -403 -274 -2
-5 -8 -9 -12 -9 -18 0 -211 -191 -306 -303 -9 -11 -128 -170 -151 -203 -67
-93 -223 -390 -223 -423 0 -6 -5 -11 -12 -11 -6 0 -9 -3 -5 -6 3 -4 0 -19 -9
-35 -8 -16 -14 -30 -13 -31 0 -2 -4 -16 -10 -31 -6 -15 -14 -40 -17 -55 -4
-15 -10 -31 -14 -37 -5 -5 -11 -23 -14 -40 -3 -16 -13 -55 -21 -85 -22 -74
-26 -95 -49 -215 -16 -84 -28 -180 -28 -222 0 -30 -4 -33 -53 -48 -5 -2 -23
-9 -40 -16 -16 -7 -32 -13 -35 -13 -17 -4 -106 -41 -110 -45 -3 -4 -39 -23
-80 -45 -90 -46 -191 -112 -274 -178 -72 -58 -216 -196 -216 -208 0 -5 -4 -10
-9 -12 -16 -6 -191 -236 -191 -251 0 -2 -20 -39 -44 -81 -25 -43 -59 -115 -76
-159 -18 -45 -36 -91 -40 -102 -13 -32 -39 -117 -44 -147 -3 -15 -7 -31 -9
-36 -3 -4 -8 -28 -12 -52 -3 -25 -8 -52 -11 -61 -17 -60 -27 -439 -13 -514 4
-22 10 -59 12 -80 8 -63 38 -198 48 -217 5 -10 8 -18 5 -18 -2 0 6 -29 19 -65
13 -36 25 -69 26 -73 1 -4 8 -21 16 -39 7 -18 13 -35 13 -38 0 -3 25 -56 55
-117 54 -108 150 -261 217 -343 39 -47 220 -230 263 -265 61 -50 144 -110 153
-110 5 0 17 -9 27 -20 10 -11 22 -20 26 -20 5 0 45 -20 89 -44 105 -59 290
-129 395 -151 11 -3 40 -9 65 -14 53 -12 115 -21 190 -28 79 -7 3668 -7 3775
1 76 5 112 8 173 17 19 3 32 -2 32 -12 0 -6 14 -30 30 -54 17 -24 30 -48 30
-53 0 -6 4 -12 8 -14 5 -2 26 -25 47 -53 55 -73 179 -192 291 -280 77 -60 343
-243 444 -305 8 -5 49 -31 90 -58 66 -42 103 -63 120 -66 3 -1 10 -4 15 -7 19
-11 93 -10 136 1 42 11 253 136 306 180 7 5 14 10 17 10 5 0 179 116 206 137
8 6 52 39 98 73 104 76 128 97 227 195 159 156 219 247 291 440 30 81 33 167
34 773 0 386 -4 631 -10 653 -13 46 -58 109 -103 143 -19 15 -79 42 -133 62
-124 45 -228 83 -274 100 -19 7 -34 16 -33 21 0 4 5 44 9 88 16 166 7 454 -20
595 -2 8 -6 33 -10 55 -15 80 -65 262 -86 310 -5 11 -17 45 -28 75 -46 127
-180 378 -254 475 -154 201 -281 340 -393 430 -28 22 -63 52 -80 67 -16 16
-35 28 -42 28 -6 0 -13 4 -15 9 -6 15 -201 137 -299 186 -104 53 -288 129
-335 139 -28 6 -36 17 -68 91 -21 45 -65 131 -99 190 -34 59 -66 116 -72 126
-5 10 -13 19 -17 19 -5 0 -8 6 -8 13 0 7 -11 24 -25 39 -14 15 -25 30 -25 33
0 11 -90 120 -175 213 -219 240 -506 444 -807 576 -32 14 -58 23 -58 20 0 -2
-10 2 -22 10 -44 27 -302 102 -418 122 -14 2 -34 6 -46 9 -27 6 -74 13 -144
21 -64 7 -446 15 -452 8z m393 -538 c31 -4 67 -9 80 -12 13 -3 38 -7 54 -9
100 -15 333 -83 405 -120 172 -86 228 -117 305 -169 50 -33 92 -63 95 -66 3
-3 32 -28 65 -56 108 -92 203 -192 279 -294 22 -30 43 -57 46 -60 22 -22 141
-240 175 -320 20 -47 40 -93 45 -102 6 -10 10 -24 10 -31 0 -26 63 -108 104
-136 22 -16 43 -29 46 -29 6 0 75 -19 145 -39 201 -59 427 -181 591 -318 100
-85 223 -212 274 -285 14 -19 27 -37 30 -40 12 -10 55 -75 55 -82 0 -4 7 -16
15 -26 26 -32 110 -191 111 -209 0 -5 6 -17 13 -28 22 -34 95 -259 102 -315 1
-14 5 -36 8 -50 8 -36 18 -99 22 -150 5 -57 6 -271 1 -276 -2 -2 -33 5 -68 16
-69 22 -131 23 -194 4 -47 -15 -229 -80 -330 -119 -38 -15 -77 -28 -85 -30 -8
-2 -28 -9 -45 -16 -16 -6 -34 -13 -40 -15 -5 -1 -23 -8 -40 -15 -16 -6 -39
-14 -49 -16 -11 -2 -25 -8 -33 -14 -7 -6 -13 -8 -13 -4 0 4 -6 3 -12 -2 -7 -5
-56 -24 -108 -42 -52 -18 -104 -36 -115 -41 -11 -4 -36 -14 -55 -21 -84 -30
-120 -51 -156 -92 -73 -83 -72 -75 -73 -632 0 -274 -2 -499 -3 -500 -10 -10
-252 -29 -333 -26 -100 3 -157 2 -161 -2 -4 -3 -17 -2 -30 3 -13 5 -24 6 -24
2 0 -5 -21 -6 -48 -2 -26 3 -59 3 -72 0 -14 -4 -37 -3 -52 1 -17 5 -28 4 -28
-2 0 -6 -8 -5 -20 1 -14 8 -20 8 -20 0 0 -6 -4 -9 -8 -6 -7 4 -67 6 -184 6
-10 -1 -47 0 -84 1 -36 1 -68 -1 -71 -4 -3 -3 -16 -2 -29 3 -13 5 -24 6 -24 2
0 -5 -21 -6 -48 -2 -26 3 -59 3 -72 0 -14 -4 -37 -3 -52 1 -17 5 -28 4 -28 -2
0 -6 -8 -5 -20 1 -11 6 -20 7 -20 3 0 -4 -36 -6 -80 -3 -45 3 -89 2 -98 -1 -9
-4 -27 -3 -39 2 -13 5 -23 5 -23 1 0 -5 -21 -6 -48 -2 -26 3 -59 3 -72 0 -14
-4 -37 -3 -52 1 -17 5 -28 4 -28 -2 0 -6 -8 -5 -20 1 -11 6 -20 7 -20 3 0 -4
-21 -7 -47 -6 -124 5 -164 5 -169 0 -3 -3 -19 -1 -35 3 -18 5 -29 5 -29 -1 0
-6 -8 -5 -20 1 -11 6 -20 7 -20 2 0 -5 -22 -6 -48 -2 -27 3 -60 3 -74 -1 -14
-4 -31 -3 -38 1 -7 4 -25 4 -40 0 -15 -4 -33 -4 -40 0 -7 4 -25 4 -40 0 -15
-4 -33 -4 -40 0 -7 4 -24 5 -38 1 -14 -4 -47 -4 -72 -1 -26 3 -56 3 -66 -1
-11 -3 -29 -3 -41 2 -13 5 -23 5 -23 1 0 -5 -21 -6 -48 -2 -26 3 -59 3 -72 0
-14 -4 -37 -3 -52 1 -17 5 -28 4 -28 -2 0 -6 -8 -5 -20 1 -14 8 -20 8 -20 0 0
-6 -4 -9 -8 -6 -5 3 -47 5 -93 5 -46 0 -93 1 -104 2 -30 1 -57 1 -85 0 -14 -1
-32 -1 -40 0 -8 0 -26 0 -40 0 -14 -1 -32 -1 -40 0 -14 1 -35 0 -97 -2 -39 -2
-60 -1 -123 1 -30 1 -59 1 -65 0 -5 -1 -12 -2 -15 -1 -3 1 -39 4 -80 6 -176 9
-347 63 -525 164 -41 24 -96 61 -105 71 -3 3 -21 17 -40 32 -209 158 -397 472
-454 758 -3 14 -7 36 -10 49 -22 98 -26 303 -9 426 16 118 25 154 57 250 103
303 319 553 609 704 72 38 202 90 237 96 55 9 165 43 197 61 77 44 123 123
128 224 16 272 18 290 41 405 8 39 16 84 19 102 5 37 77 256 106 322 50 113
133 264 168 307 4 5 14 21 21 35 7 13 25 38 39 56 14 18 40 49 56 69 82 101
325 324 353 324 6 0 12 3 14 8 5 11 66 52 78 52 5 0 10 3 10 8 0 4 19 16 43
27 23 11 44 23 47 26 3 4 25 16 50 27 25 11 66 29 92 41 49 22 211 78 244 84
10 2 26 7 34 10 27 10 183 36 255 43 39 3 71 7 72 8 6 5 283 -2 334 -8z m2969
-3760 c36 -13 148 -54 250 -90 252 -91 292 -106 312 -117 10 -5 26 -9 35 -9
10 0 25 -6 34 -13 14 -11 16 -64 13 -502 -1 -269 -4 -497 -6 -505 -38 -125
-182 -276 -403 -424 -38 -25 -77 -51 -85 -57 -8 -5 -59 -39 -114 -74 -94 -61
-100 -64 -126 -50 -14 7 -32 21 -39 29 -8 9 -18 16 -22 16 -9 0 -258 163 -297
194 -149 119 -214 182 -266 261 -61 91 -60 85 -61 617 l0 488 30 12 c16 7 35
13 40 14 10 2 214 78 245 91 8 3 20 7 25 9 6 1 84 29 175 62 206 74 195 70
195 71 0 1 29 -10 65 -23z"/>
</g>
</svg>
